<?xml version="1.0" encoding="UTF-8" standalone="no"?>
<svg width="111px" height="44px" viewBox="0 0 111 44" version="1.1" xmlns="http://www.w3.org/2000/svg" xmlns:xlink="http://www.w3.org/1999/xlink">
    <!-- Generator: Sketch 46.2 (44496) - http://www.bohemiancoding.com/sketch -->
    <title>Combined shape 5907</title>
    <desc>Created with Sketch.</desc>
    <defs></defs>
    <g id="Page-1" stroke="none" stroke-width="1" fill="none" fill-rule="evenodd">
        <g id="Artboard" transform="translate(-405.000000, -3102.000000)" fill="#1F70C1">
            <g id="01_uvod" transform="translate(-1.000000, -2.000000)">
                <g id="reseni" transform="translate(212.000000, 2933.000000)">
                    <g id="Group-5" transform="translate(89.000000, 171.000000)">
                        <path d="M104.999902,-5.59999999e-05 L126.60598,-5.59999999e-05 L126.60598,3.010435 L104.999902,3.010435 L104.999902,-5.59999999e-05 Z M129.667108,-5.59999999e-05 L153.146206,-5.59999999e-05 C157.311652,-5.59999999e-05 160.456684,3.010435 160.456684,3.010435 L129.667108,3.010435 L129.667108,-5.59999999e-05 Z M166.496518,-5.59999999e-05 L184.01809,-5.59999999e-05 L185.123776,3.010435 L166.496518,3.010435 L166.496518,-5.59999999e-05 Z M198.47842,-5.59999999e-05 L215.830816,-5.59999999e-05 L215.830816,3.010435 L197.372848,3.010435 L198.47842,-5.59999999e-05 Z M104.999902,5.854405 L126.60598,5.854405 L126.60598,8.864661 L104.999902,8.864661 L104.999902,5.854405 Z M129.667108,5.858682 L162.92809,5.858682 C163.628164,6.548031 164.029444,8.864661 164.029444,8.864661 L129.667108,8.864661 L129.667108,5.858682 Z M166.496518,5.858682 L186.142708,5.858682 L187.165972,8.864661 L166.496518,8.864661 L166.496518,5.858682 Z M196.267162,5.858682 L215.830816,5.858682 L215.830816,8.864661 L195.243898,8.864661 L196.267162,5.858682 Z M111.209026,11.708866 L120.566032,11.708866 L120.566032,14.723634 L111.209026,14.723634 L111.209026,11.708866 Z M135.876232,11.708866 L145.233124,11.708866 L145.233124,14.723634 L135.876232,14.723634 L135.876232,11.708866 Z M154.334314,11.708866 L164.28526,11.708866 C164.28526,13.131509 163.691206,14.723634 163.691206,14.723634 L154.334314,14.723634 L154.334314,11.708866 Z M172.705642,11.708866 L188.189236,11.708866 L189.294922,14.723634 L172.705642,14.723634 L172.705642,11.708866 Z M194.229298,11.708866 L209.790982,11.708866 L209.790982,14.723634 L193.11928,14.723634 L194.229298,11.708866 Z M111.209026,17.567604 L120.566032,17.567604 L120.566032,20.57786 L111.209026,20.57786 L111.209026,17.567604 Z M135.876232,17.567604 L162.412126,17.567604 C161.775208,19.03344 159.77599,20.57786 159.77599,20.57786 L135.876232,20.57786 L135.876232,17.567604 Z M172.705642,17.567604 L190.357288,17.567604 L191.293798,20.117589 L192.22609,17.567604 L209.790982,17.567604 L209.790982,20.57786 L200.433976,20.57786 L200.433976,18.902263 L199.796602,20.57786 L182.656702,20.57786 L182.062534,18.902263 L182.062534,20.57786 L172.705642,20.57786 L172.705642,17.567604 Z M111.209026,23.422065 L120.566032,23.422065 L120.566032,26.432321 L111.209026,26.432321 L111.209026,23.422065 Z M135.876232,23.422065 L159.77599,23.422065 C159.77599,23.422065 161.775094,24.971326 162.412126,26.432321 L135.876232,26.432321 L135.876232,23.422065 Z M172.705642,23.422065 L182.062534,23.422065 L182.062534,26.432321 L172.705642,26.432321 L172.705642,23.422065 Z M183.762274,23.422065 L198.82099,23.422065 L197.745742,26.432321 L184.893952,26.432321 L183.762274,23.422065 Z M200.433976,23.422065 L209.790982,23.422065 L209.790982,26.432321 L200.433976,26.432321 L200.433976,23.422065 Z M111.209026,29.276244 L120.566032,29.276244 L120.566032,32.286782 L111.209026,32.286782 L111.209026,29.276244 Z M135.876232,29.276244 L145.233124,29.276244 L145.233124,32.286782 L135.876232,32.286782 L135.876232,29.276244 Z M154.334314,29.276244 L163.691206,29.276244 C163.691206,29.276244 164.28526,30.865972 164.28526,32.286782 L154.334314,32.286782 L154.334314,29.276244 Z M172.705642,29.276244 L182.062534,29.276244 L182.062534,32.286782 L172.705642,32.286782 L172.705642,29.276244 Z M185.887006,29.276244 L196.70515,29.276244 L195.599464,32.286782 L186.983914,32.286782 L185.887006,29.276244 Z M200.433976,29.276244 L209.790982,29.276244 L209.790982,32.286782 L200.433976,32.286782 L200.433976,29.276244 Z M105.169078,35.130987 L126.775042,35.130987 L126.775042,38.14552 L105.169078,38.14552 L105.169078,35.130987 Z M129.667108,35.130987 L164.029444,35.130987 C164.029444,35.130987 163.628164,37.455372 162.92809,38.14552 L129.667108,38.14552 L129.667108,35.130987 Z M166.665694,35.130987 L182.062534,35.130987 L182.062534,38.14552 L166.665694,38.14552 L166.665694,35.130987 Z M188.015842,35.130987 L194.584864,35.130987 L193.52683,38.14552 L189.143188,38.14552 L188.015842,35.130987 Z M200.433976,35.130987 L215.999992,35.130987 L215.999992,38.14552 L200.433976,38.14552 L200.433976,35.130987 Z M105.169078,40.989443 L126.775042,40.989443 L126.775042,43.999981 L105.169078,43.999981 L105.169078,40.989443 Z M129.667108,40.989443 L160.456684,40.989443 C160.456684,40.989443 157.311652,43.995657 153.146206,43.995657 L129.667108,43.995657 L129.667108,40.989443 Z M166.665694,40.989443 L182.062534,40.989443 L182.062534,43.999981 L166.665694,43.999981 L166.665694,40.989443 Z M190.153456,40.989443 L192.525226,40.989443 L191.423872,43.995657 L191.237482,43.991662 L190.153456,40.989443 Z M200.433976,40.989443 L215.999992,40.989443 L215.999992,43.999981 L200.433976,43.999981 L200.433976,40.989443 Z" id="Combined-shape-5907"></path>
                    </g>
                </g>
            </g>
        </g>
    </g>
</svg>