<?xml version="1.0" encoding="UTF-8" standalone="no"?>
<svg width="30px" height="31px" viewBox="0 0 30 31" version="1.1" xmlns="http://www.w3.org/2000/svg" xmlns:xlink="http://www.w3.org/1999/xlink">
    <!-- Generator: Sketch 46.2 (44496) - http://www.bohemiancoding.com/sketch -->
    <title>Combined shape 8784</title>
    <desc>Created with Sketch.</desc>
    <defs></defs>
    <g id="Page-1" stroke="none" stroke-width="1" fill="none" fill-rule="evenodd">
        <g id="Artboard" transform="translate(-1137.000000, -44.000000)" fill="#FF6600">
            <g id="01_uvod" transform="translate(-1.000000, -2.000000)">
                <g id="header">
                    <path d="M1158.33396,76.249713 L1158.33287,76.249713 C1153.24926,76.249713 1148.11009,74.036634 1144.23335,70.17801 C1139.02478,64.994106 1136.90941,57.608376 1138.84132,51.357747 C1138.91575,51.071274 1139.00676,50.804403 1139.1121,50.5638 L1139.13464,50.502387 C1139.16769,50.411472 1139.20101,50.320788 1139.23698,50.231226 C1139.39929,49.822983 1139.60877,49.507008 1139.85891,49.293795 C1139.87744,49.278219 1142.02535,47.705901 1144.22393,47.705901 C1144.93701,47.705901 1145.57267,47.874894 1146.1131,48.208557 C1149.47244,50.280825 1151.52662,53.325141 1151.34638,55.964448 C1151.33078,56.194029 1151.2094,56.404305 1151.01754,56.533599 L1146.24377,59.747964 C1146.28212,60.373182 1146.61817,62.121192 1148.92701,64.798284 C1151.36893,67.62909 1154.22659,67.992519 1155.27012,68.024199 L1158.31523,63.274245 C1158.43229,63.091854 1158.62296,62.968764 1158.83815,62.936556 C1159.07326,62.901444 1159.317,62.883987 1159.56235,62.883987 C1161.98842,62.883987 1164.84952,64.64754 1167.02926,67.486398 C1167.71358,68.377431 1167.90816,69.51603 1167.59203,70.77828 C1167.12119,72.657432 1165.52241,74.60364 1164.98899,74.846652 C1162.94661,75.777912 1160.7074,76.249713 1158.33396,76.249713 Z M1140.83042,50.437212 C1140.80669,50.461071 1140.72638,50.552811 1140.63438,50.784009 C1140.60361,50.861262 1140.57607,50.936898 1140.54846,51.012534 L1140.51619,51.100512 C1140.51048,51.116352 1140.50429,51.131895 1140.49746,51.146382 C1140.41926,51.322074 1140.35068,51.52377 1140.2936,51.746388 C1140.2906,51.758202 1140.2872,51.769983 1140.2835,51.781797 C1138.50496,57.513138 1140.47284,64.318167 1145.29659,69.119601 C1148.89356,72.69954 1153.64519,74.753031 1158.33298,74.753031 L1158.33406,74.753031 C1160.46416,74.753031 1162.46948,74.336769 1164.29644,73.515993 C1164.85071,73.032411 1167.13609,70.090296 1165.83443,68.395416 C1163.90524,65.882433 1161.36207,64.290018 1159.38701,64.384959 L1156.31912,69.170289 C1156.19387,69.36555 1155.97956,69.492699 1155.74734,69.513357 C1155.74734,69.513357 1155.63599,69.522993 1155.43312,69.522993 C1154.39812,69.522993 1150.78753,69.252888 1147.78587,65.773005 C1144.35371,61.793667 1144.7191,59.442714 1144.77187,59.188185 C1144.81152,58.997214 1144.92467,58.829046 1145.08698,58.719882 L1149.85055,55.512216 C1149.77045,53.539443 1147.96471,51.112062 1145.3208,49.48074 C1145.02181,49.296204 1144.6527,49.203111 1144.22393,49.203111 C1142.796,49.203111 1141.13863,50.211624 1140.83042,50.437212 Z M1161.69041,60.808221 C1161.63944,60.808221 1161.58786,60.803139 1161.53612,60.792414 C1161.12944,60.707934 1160.8687,60.311505 1160.95363,59.90676 C1161.32283,58.145616 1160.78179,56.335929 1159.50615,55.065627 C1158.23094,53.796678 1156.41245,53.258085 1154.64265,53.625012 C1154.23482,53.709492 1153.83767,53.449881 1153.75314,53.0454 C1153.66845,52.640655 1153.9294,52.244226 1154.33594,52.159713 C1156.60363,51.690057 1158.93447,52.380186 1160.5696,54.007482 C1162.2051,55.635867 1162.89904,57.955437 1162.42573,60.212802 C1162.35171,60.56577 1162.03898,60.808221 1161.69041,60.808221 Z M1167.11038,59.361996 C1166.69953,59.361996 1166.36384,59.033415 1166.35864,58.623027 C1166.324,55.863039 1165.22641,53.270163 1163.26825,51.320985 C1161.31059,49.372104 1158.70548,48.279903 1155.9323,48.245847 C1155.51706,48.240732 1155.18461,47.901195 1155.18971,47.488134 C1155.19481,47.07801 1155.53056,46.749165 1155.94131,46.749165 L1155.95094,46.749165 C1159.11872,46.788072 1162.09518,48.035835 1164.3317,50.262609 C1166.56893,52.48935 1167.82282,55.451859 1167.8625,58.604547 C1167.8676,59.017872 1167.53525,59.356881 1167.11997,59.361996 L1167.11038,59.361996 Z" id="Combined-shape-8784"></path>
                </g>
            </g>
        </g>
    </g>
</svg>